<?xml version="1.0" standalone="no"?>
<svg xmlns:xlink="http://www.w3.org/1999/xlink" id="wave" style="transform:rotate(0deg); transition: 0.3s" viewBox="0 0 1440 490" version="1.1" xmlns="http://www.w3.org/2000/svg"><defs><linearGradient id="sw-gradient-0" x1="0" x2="0" y1="1" y2="0"><stop stop-color="rgba(59, 59, 72, 1)" offset="0%"/><stop stop-color="rgba(112, 112, 112, 1)" offset="100%"/></linearGradient></defs><path style="transform:translate(0, 0px); opacity:1" fill="url(#sw-gradient-0)" d="M0,441L60,408.3C120,376,240,310,360,285.8C480,261,600,278,720,302.2C840,327,960,359,1080,383.8C1200,408,1320,425,1440,383.8C1560,343,1680,245,1800,220.5C1920,196,2040,245,2160,220.5C2280,196,2400,98,2520,65.3C2640,33,2760,65,2880,73.5C3000,82,3120,65,3240,49C3360,33,3480,16,3600,57.2C3720,98,3840,196,3960,228.7C4080,261,4200,229,4320,245C4440,261,4560,327,4680,343C4800,359,4920,327,5040,310.3C5160,294,5280,294,5400,245C5520,196,5640,98,5760,65.3C5880,33,6000,65,6120,122.5C6240,180,6360,261,6480,302.2C6600,343,6720,343,6840,326.7C6960,310,7080,278,7200,228.7C7320,180,7440,114,7560,98C7680,82,7800,114,7920,163.3C8040,212,8160,278,8280,253.2C8400,229,8520,114,8580,57.2L8640,0L8640,490L8580,490C8520,490,8400,490,8280,490C8160,490,8040,490,7920,490C7800,490,7680,490,7560,490C7440,490,7320,490,7200,490C7080,490,6960,490,6840,490C6720,490,6600,490,6480,490C6360,490,6240,490,6120,490C6000,490,5880,490,5760,490C5640,490,5520,490,5400,490C5280,490,5160,490,5040,490C4920,490,4800,490,4680,490C4560,490,4440,490,4320,490C4200,490,4080,490,3960,490C3840,490,3720,490,3600,490C3480,490,3360,490,3240,490C3120,490,3000,490,2880,490C2760,490,2640,490,2520,490C2400,490,2280,490,2160,490C2040,490,1920,490,1800,490C1680,490,1560,490,1440,490C1320,490,1200,490,1080,490C960,490,840,490,720,490C600,490,480,490,360,490C240,490,120,490,60,490L0,490Z"/></svg>